<svg xmlns="http://www.w3.org/2000/svg" xmlns:xlink="http://www.w3.org/1999/xlink" version="1.1" width="512" height="512" x="0" y="0" viewBox="0 0 512 512" style="enable-background:new 0 0 512 512" xml:space="preserve" class="">
  <g>
    <linearGradient id="a" x1="180.92" x2="471.03" y1="175" y2="465.1" gradientUnits="userSpaceOnUse">
      <stop stop-opacity="1" stop-color="#42445a" offset="0"/>
      <stop stop-opacity="1" stop-color="#379be9" offset="1"/>
    </linearGradient>
    <g data-name="7">
      <rect width="512" height="512" fill="#2593ff" rx="150" opacity="1" data-original="#2492ff" class=""/>
      <path fill="url(#a)" d="M512 304.93V362c0 82.84-67.16 150-150 150h-45.23L173.7 368.92l-11.57-149.66 54-79.47h130.73z" opacity="1" data-original="url(#a)" class=""/>
      <path fill="#ffffff" d="M375.14 246.33v116.8c-10.55 11.72-25.98 21.16-46.29 28.32s-42.58 10.74-66.8 10.74c-37.24 0-66.99-11.39-89.26-34.18-22.27-22.78-34.18-54.49-35.74-95.12l-.2-24.61c0-27.99 4.95-52.44 14.84-73.34s24.05-36.98 42.48-48.24c18.42-11.26 39.75-16.89 63.96-16.89 35.42 0 62.92 8.11 82.52 24.32s31.02 40.4 34.28 72.56h-66.02c-2.34-15.88-7.42-27.21-15.23-33.98s-18.88-10.16-33.2-10.16c-17.19 0-30.47 7.29-39.84 21.88-9.38 14.58-14.13 35.42-14.26 62.5v17.19c0 28.39 4.85 49.71 14.55 63.96 9.7 14.26 24.97 21.39 45.8 21.39 17.84 0 31.12-3.97 39.84-11.91v-44.14h-47.66v-47.07h116.21z" opacity="1" data-original="#ffffff" class=""/>
    </g>
  </g>
</svg>